PathFileType	3	(X/Y/Z)	D:\Jess\Healthy\Labelled\HA12\20250414\SRRun02.trc
DataRate	CameraRate	NumFrames	NumMarkers	Units	OrigDataRate	OrigDataStartFrame	OrigNumFrames
250.0	250.0	4	37	mm	250.0	35000	2501
Frame#	Time	C7			T10			CLAV			LSHO			RSHO			LASIS			RASIS			LPSIS			RPSIS			LILCR			RILCR			LGTR			LTHI			LLTHI			LLEP			LMEP			LPSH			LLSH			LDSH			LLMAL			LMMAL			LTOE			L5TH			LHEE			RGTR			RTHI			RLTHI			RLEP			RMEP			RPSH			RLSH			RDSH			RLMAL			RMMAL			RTOE			R5TH			RHEE			
		X1	Y1	Z1	X2	Y2	Z2	X3	Y3	Z3	X4	Y4	Z4	X5	Y5	Z5	X6	Y6	Z6	X7	Y7	Z7	X8	Y8	Z8	X9	Y9	Z9	X10	Y10	Z10	X11	Y11	Z11	X12	Y12	Z12	X13	Y13	Z13	X14	Y14	Z14	X15	Y15	Z15	X16	Y16	Z16	X17	Y17	Z17	X18	Y18	Z18	X19	Y19	Z19	X20	Y20	Z20	X21	Y21	Z21	X22	Y22	Z22	X23	Y23	Z23	X24	Y24	Z24	X25	Y25	Z25	X26	Y26	Z26	X27	Y27	Z27	X28	Y28	Z28	X29	Y29	Z29	X30	Y30	Z30	X31	Y31	Z31	X32	Y32	Z32	X33	Y33	Z33	X34	Y34	Z34	X35	Y35	Z35	X36	Y36	Z36	X37	Y37	Z37	

1	139.996	1264.075454246229	1437.304330112619	-354.0002053927058	1139.675719728813	1166.106825627585	-346.2538567708498	1391.34147899708	1297.246604762244	-379.0215681184624	1308.880166886989	1367.373218942458	-530.0730326756816	1364.529389494612	1353.665519895264	-215.5555276164691	1298.1963796247	906.4838322744175	-495.1346533967826	1321.868419378939	881.8638709698993	-252.0573585397074	1107.608639016541	973.6300855241916	-359.3065485951324	1113.682769570863	969.5464714820085	-321.688801585687	1229.589367100633	968.4552324817769	-541.2367504602448	1258.690769359268	943.3162304307128	-181.750151288606	1274.614981378576	793.8114550797828	-548.051846762135	1396.358048169056	718.7320392058983	-481.2132611339786	1331.211172370642	624.406115209102	-524.8093924475533	1373.760192393038	498.4760326026982	-499.1044109776284	nan	nan	nan	1396.020642599964	385.7325510119418	-438.4758812099226	1298.449882128045	294.4543133803172	-495.7866927959524	1305.58885669086	178.4410289331829	-419.2245496749103	1228.959351594151	107.1747886234734	-442.1355008380219	nan	nan	nan	1375.150563257672	63.25554265858184	-429.6564787129225	1342.270609647452	45.25276832868706	-468.4203833249343	1153.003498544829	85.16666352555048	-389.6072588248817	1257.275850499772	777.6288447866262	-178.8491392403552	1352.371598115752	657.6827882047986	-282.2510814323459	1236.787354045646	573.8569348070363	-197.3615917184135	1230.113481145222	461.2138643126052	-209.728197525043	nan	nan	nan	1170.244864097419	370.4254077436279	-260.6065772538701	1072.780469361595	415.9862711922091	-191.4811159387312	946.9249931762989	338.1009750755294	-260.8986645767691	864.4446853175772	381.6442272938554	-222.7840788458153	nan	nan	nan	827.9342530114885	218.4581630975155	-211.0556906480565	789.9913387730797	254.5344093889559	-175.356757188225	817.3508214882883	438.7270336909042	-286.1229178658444	
2	140	1263.080017307924	1437.04882173166	-354.637297721402	1139.214267174255	1165.838174113804	-347.1315854943938	1391.032399008551	1297.030780154202	-378.1101663388484	1310.339494608512	1366.927163937307	-529.7978710964317	1362.307190000963	1353.96850975452	-214.9765535093841	1298.264582972577	906.8450740753392	-494.8455076304773	1320.985207539389	882.7906150015548	-251.120703879054	1107.027096274494	973.3938583451448	-360.262109964227	1112.833687492657	969.4915227864366	-322.674539681334	1229.018734164235	967.9131865089651	-541.4604512180658	1256.593899998627	943.7855535819058	-181.7997934781518	1273.990798276189	792.7516064200452	-547.7351696411556	1393.811905489885	714.3571284478679	-480.6719001758628	1326.790900362413	621.7951399763052	-524.5800634622755	1367.417652259518	494.8142135784336	-499.0784289079357	nan	nan	nan	1388.616631113332	382.4935816802043	-438.357837515293	1289.785692136122	292.5191791924844	-495.5376730288314	1294.869832084449	177.3787513266359	-419.094221847477	1217.212222128592	107.3941148919683	-442.1472493226575	nan	nan	nan	1363.035809218253	62.7803726291495	-429.8389054950133	1330.069895180461	45.13733626654385	-468.5247637719966	1140.886076994778	85.42316155563196	-389.6060623653597	1256.45115098938	777.9309820861835	-178.6636971173139	1355.113356193681	659.4573473524594	-283.2673399721957	1242.217948696968	574.1227044267249	-197.1120880938952	1237.442084054837	460.9172297778138	-209.6337525965022	nan	nan	nan	1178.576972169462	370.4263511130791	-261.1000383551782	1081.016094530471	415.2481238035761	-191.671215573628	955.4996385355711	336.7189178206652	-261.4994395193164	872.7471180185212	379.3178281881328	-223.0983012158976	nan	nan	nan	839.0756262777174	215.6685929374382	-212.2002551755409	800.7602073715694	250.8179843643141	-176.0536428123266	824.1432937518352	436.0521651243738	-285.800301171876	
3	140.004	1262.099170895246	1436.799601555709	-355.2717765288859	1138.75573218187	1165.575922752364	-348.0048677933381	1390.726956262192	1296.813820193701	-377.2044142932483	1311.785618805931	1366.497629979103	-529.5312132388691	1360.09893709769	1354.278504173883	-214.3962627947196	1298.325182486704	907.1813355803752	-494.5659998993094	1320.113780097966	883.7101891442883	-250.1963990019191	1106.450858960968	973.16258433065	-361.2202671882481	1111.990405789456	969.4390429489454	-323.6667491728231	1228.440255540786	967.3705994055871	-541.6859859880187	1254.517437042959	944.2425763140996	-181.8500249418167	1273.355189199073	791.6824313393834	-547.4219911195948	1391.278867261819	710.0233271243708	-480.1588039570028	1322.401076627297	619.2093311483296	-524.3537936443525	1361.124480298505	491.187067037082	-499.0481471347458	nan	nan	nan	1381.26825280783	379.2778267306427	-438.2369290535025	1281.191136372082	290.5939104157006	-495.283705745814	1284.246620512637	176.3147970994896	-418.9605991584879	1205.574236271505	107.5965833774071	-442.15133461175	nan	nan	nan	1351.042108485544	62.31134367076359	-430.0130392754108	1317.995177138098	45.02353494450796	-468.6269962597181	1128.879375157192	85.65216757187353	-389.5993468124061	1255.62417588712	778.2348655721298	-178.4876809666378	1357.828773320243	661.2292925909322	-284.2760652497051	1247.603619356539	574.399605292412	-196.8744040923869	1244.709109694104	460.6431656002158	-209.5390817058134	nan	nan	nan	1186.835008602701	370.4338474534923	-261.5899458353563	1089.174113771852	414.5196343740583	-191.8578379329551	963.9915301806699	335.3495147153178	-262.0934006277413	880.9584848363497	377.0107203524581	-223.4003268110555	nan	nan	nan	850.1119601556318	212.8862754824891	-213.3468460350655	811.4192887135023	247.1093514577002	-176.7544688251087	830.8520984682928	433.401328026562	-285.4640082998911	
4	140.008	1261.143094679698	1436.589537037628	-355.9010181851702	1138.309973817152	1165.347993911984	-348.8813179313216	1390.429360018663	1296.6270327992	-376.2948459088109	1313.216589676082	1366.130405184158	-529.2724749319033	1357.898961678136	1354.634112374156	-213.8084510264189	1298.379571249514	907.4869512710784	-494.3011654452414	1319.265560466451	884.6387556217949	-249.2992350275038	1105.891761583557	972.9722747155412	-362.1826292402472	1111.165798530683	969.4209591368126	-324.6688303260243	1227.876763027502	966.8497130719308	-541.9100508959536	1252.486917617628	944.7106244779281	-181.8968644013555	1272.686091432483	790.6175307994744	-547.1106832275339	1388.731778827132	705.7785877733585	-479.6770719183701	1318.025191598196	616.6944092006804	-524.1285885346817	1354.852279889219	487.6527003183838	-499.0079573640579	nan	nan	nan	1373.940087904977	376.1285244799478	-438.1090701049976	1272.64352130064	288.7174673073384	-495.0249240911706	1273.716167922192	175.2705493249804	-418.8236902199042	1194.051129930813	107.7930720085116	-442.1461394487887	nan	nan	nan	1339.177006265049	61.85285708039005	-430.172767584924	1306.053791214463	44.91436780911486	-468.7236953907887	1116.991666885079	85.86507956491869	-389.5878798508253	1254.810812377909	778.5746182390875	-178.3254133552522	1360.502865288603	663.0368838772002	-285.2671690889661	1252.925838630004	574.7370379970754	-196.6545911005441	1251.894112243887	460.4518978361168	-209.4456693904783	nan	nan	nan	1195.010345197311	370.4843391067113	-262.0782083261195	1097.239085501527	413.8033331514309	-192.0445672749579	972.4105038839991	333.9730180543355	-262.688847810621	889.0804785257774	374.6746469692218	-223.6970742215453	nan	nan	nan	861.0878111331998	210.0772656647369	-214.5183481657385	822.0062720006738	243.356379893544	-177.484838537886	837.4725053706311	430.7080273067101	-285.1181866700942	
